<svg xmlns="http://www.w3.org/2000/svg" xmlns:xlink="http://www.w3.org/1999/xlink" viewBox="0 0 342 133.5" height="1" width="1"><defs><style>.cls-1,.cls-6{fill:#0d1115;}.cls-1,.cls-2{stroke:#516370;}.cls-1,.cls-11,.cls-12,.cls-2{stroke-miterlimit:10;}.cls-1,.cls-2,.cls-8{opacity:0.8;}.cls-11,.cls-2,.cls-4{fill:#c0e4f9;}.cls-3{fill:#516370;}.cls-5{opacity:0.9;}.cls-7{fill:url(#linear-gradient);}.cls-9{fill:#060c13;}.cls-10{fill:#323d45;}.cls-11{stroke:#c0e4f9;}.cls-12{fill:#ecd184;stroke:#ecd184;}.cls-13{fill:#303b43;}.cls-14{fill:#3f4449;}</style><linearGradient id="linear-gradient" x1="21" y1="46" x2="21" y2="4" gradientUnits="userSpaceOnUse"><stop offset="0" stop-color="#303b43"/><stop offset="0.06" stop-color="#293239"/><stop offset="0.21" stop-color="#191f25"/><stop offset="0.36" stop-color="#0f1418"/><stop offset="0.5" stop-color="#0c1014"/><stop offset="0.64" stop-color="#0f1418"/><stop offset="0.79" stop-color="#191f25"/><stop offset="0.94" stop-color="#293239"/><stop offset="1" stop-color="#303b43"/></linearGradient></defs><g id="Layer_2" data-name="Layer 2"><g id="Layer_10" data-name="Layer 10"><g id="Path"><polyline class="cls-1" points="24.5 70 24.5 133 17.5 133 17.5 70"/><polyline class="cls-2" points="22.5 70 22.5 133 19.5 133 19.5 70"/></g><g id="Linien"><rect id="Bot" class="cls-3" x="43" y="112" width="298" height="1"/><rect id="Top_2" data-name="Top 2" class="cls-3" y="2" width="342" height="1"/><rect id="Top_1" data-name="Top 1" class="cls-3" width="342" height="1"/><rect id="Top_1_R" data-name="Top 1 R" class="cls-4" x="340" width="2" height="1"/><rect id="Top_1_L" data-name="Top 1 L" class="cls-4" width="2" height="1"/><rect id="Bot_R" data-name="Bot R" class="cls-4" x="339" y="112" width="2" height="1"/><rect id="Bot_L" data-name="Bot L" class="cls-4" x="43" y="112" width="2" height="1"/><rect id="Top_2_R" data-name="Top 2 R" class="cls-4" x="340" y="2" width="2" height="1"/><rect id="Top_2_L" data-name="Top 2 L" class="cls-4" y="2" width="2" height="1"/></g><g id="Fleet-Box"><g id="Box" class="cls-5"><rect class="cls-6" y="4" width="42" height="42"/><path class="cls-7" d="M41,5V45H1V5H41m1-1H0V46H42V4Z"/></g><g id="Corners"><polygon class="cls-4" points="0 4 0 5 0 6 1 6 1 5 2 5 2 4 0 4"/><polygon class="cls-4" points="40 4 40 5 41 5 41 6 42 6 42 5 42 4 40 4"/><polygon class="cls-4" points="41 44 41 45 40 45 40 46 41 46 42 46 42 44 41 44"/><polygon class="cls-4" points="1 45 1 44 0 44 0 46 1 46 2 46 2 45 1 45"/></g></g><g id="Skills"><g id="Box-2" data-name="Box" class="cls-8"><rect class="cls-9" x="0.5" y="48.5" width="41" height="9"/><path class="cls-10" d="M41,49v8H1V49H41m1-1H0V58H42V48Z"/></g><rect id="Level_1" data-name="Level 1" class="cls-11" x="2.5" y="50.5" width="5" height="5"/><rect id="Level_2" data-name="Level 2" class="cls-11" x="10.5" y="50.5" width="5" height="5"/><rect id="Level_3" data-name="Level 3" class="cls-11" x="18.5" y="50.5" width="5" height="5"/><rect id="Level_4" data-name="Level 4" class="cls-11" x="26.5" y="50.5" width="5" height="5"/><rect id="Level_5" data-name="Level 5" class="cls-11" x="34.5" y="50.5" width="5" height="5"/></g><g id="ISK"><g id="Box-3" data-name="Box" class="cls-8"><rect class="cls-9" x="0.5" y="59.5" width="41" height="9"/><path class="cls-10" d="M41,60v8H1V60H41m1-1H0V69H42V59Z"/></g><rect id="Level_1-2" data-name="Level 1" class="cls-12" x="2.5" y="61.5" width="5" height="5"/><rect id="Level_2-2" data-name="Level 2" class="cls-12" x="10.5" y="61.5" width="5" height="5"/><rect id="Level_3-2" data-name="Level 3" class="cls-12" x="18.5" y="61.5" width="5" height="5"/><rect id="Level_4-2" data-name="Level 4" class="cls-12" x="26.5" y="61.5" width="5" height="5"/><rect id="Level_5-2" data-name="Level 5" class="cls-12" x="34.5" y="61.5" width="5" height="5"/></g><g id="Ship-Box"><g id="R_Big" data-name="R Big" class="cls-5"><rect class="cls-6" x="46.5" y="8.5" width="295" height="97"/><path class="cls-13" d="M341,9v96H47V9H341m1-1H46v98H342V8Z"/></g><polygon class="cls-14" points="49.5 14.5 49.5 11.5 52.5 11.5 52.5 12.5 50.5 12.5 50.5 14.5 49.5 14.5"/><path class="cls-13" d="M50,12v0m3-1H49v4h2V13h2V11Z"/><polygon class="cls-14" points="49.5 102.5 49.5 99.5 50.5 99.5 50.5 101.5 52.5 101.5 52.5 102.5 49.5 102.5"/><path class="cls-13" d="M50,100v2h0v-2m1-1H49v4h4v-2H51V99Z"/><polygon class="cls-14" points="335.5 102.5 335.5 101.5 337.5 101.5 337.5 99.5 338.5 99.5 338.5 102.5 335.5 102.5"/><path class="cls-13" d="M338,100v0m1-1h-2v2h-2v2h4V99Z"/><polygon class="cls-14" points="337.5 14.5 337.5 12.5 335.5 12.5 335.5 11.5 338.5 11.5 338.5 14.5 337.5 14.5"/><path class="cls-13" d="M338,12v0m1-1h-4v2h2v2h2V11Z"/></g></g></g></svg>